<svg width="20" height="20" viewBox="0 0 20 20" fill="none" xmlns="http://www.w3.org/2000/svg">
<g id="Fiat">
<g id="United States">
<path id="Shape" d="M5.04512 13.9999H14.9599C15.355 13.9686 15.7053 13.7356 15.8849 13.3848H4.11835C4.29828 13.7361 4.64937 13.9692 5.04512 13.9999Z" fill="#ED5565"/>
<path id="Shape_2" d="M4 12.7676V12.9959C4.01504 13.1308 4.05458 13.2619 4.1167 13.3828H15.8816C15.9437 13.2619 15.9832 13.1308 15.9983 12.9959V12.7676H4Z" fill="white"/>
<path id="Shape_3" d="M16 12.1543H4V12.7695H16V12.1543Z" fill="#ED5565"/>
<path id="Shape_4" d="M16 11.5371H4V12.1523H16V11.5371Z" fill="white"/>
<path id="Shape_5" d="M16 10.9238H4V11.5389H16V10.9238Z" fill="#ED5565"/>
<path id="Shape_6" d="M16 10.3086H4V10.9238H16V10.3086Z" fill="white"/>
<path id="Shape_7" d="M16 9.69336H4V10.3085H16V9.69336Z" fill="#ED5565"/>
<path id="Shape_8" d="M16 9.07736H4V9.69254H16V9.07736Z" fill="white"/>
<path id="Shape_9" d="M16 8.46103H4V9.07621H16V8.46103Z" fill="#ED5565"/>
<path id="Shape_10" d="M16 7.84467H4V8.45984H16V7.84467Z" fill="white"/>
<path id="Shape_11" d="M16 7.23047H4V7.84565H16V7.23047Z" fill="#ED5565"/>
<path id="Shape_12" d="M15.9999 7.23016V7.00182C15.985 6.86635 15.9455 6.73469 15.8832 6.61328H4.11829C4.05597 6.73469 4.01643 6.86635 4.00159 7.00182V7.23016H15.9999Z" fill="white"/>
<path id="Shape_13" d="M14.9584 6H5.04536C4.65024 6.03136 4.29992 6.26433 4.1203 6.61518H15.8852C15.7052 6.26384 15.3541 6.03079 14.9584 6Z" fill="#ED5565"/>
<path id="Shape_14" d="M9.69437 10.308V6H5.04506C4.50035 6.0433 4.06328 6.46441 4.0033 7.00371V10.308H9.69437Z" fill="#4A89DC"/>
<path id="Shape_15" d="M4.70536 6.51953L4.65903 6.66268H4.508L4.62985 6.74958L4.58351 6.89273L4.70536 6.80412L4.82722 6.89273L4.78088 6.74958L4.90273 6.66268H4.7517L4.70536 6.51953Z" fill="white"/>
<path id="Shape_16" d="M4.70536 7.24414L4.65903 7.38728H4.508L4.62985 7.4759L4.58351 7.61734L4.70536 7.53043L4.82722 7.61734L4.78088 7.4759L4.90273 7.38728H4.7517L4.70536 7.24414Z" fill="white"/>
<path id="Shape_17" d="M4.70536 7.96582L4.65903 8.10896H4.508L4.62985 8.19758L4.58351 8.34072L4.70536 8.25211L4.82722 8.34072L4.78088 8.19758L4.90273 8.10896H4.7517L4.70536 7.96582Z" fill="white"/>
<path id="Shape_18" d="M4.70536 8.69238L4.65903 8.83382H4.508L4.62985 8.92244L4.58351 9.06558L4.70536 8.97697L4.82722 9.06558L4.78088 8.92244L4.90273 8.83382H4.7517L4.70536 8.69238Z" fill="white"/>
<path id="Shape_19" d="M4.7517 9.5555L4.70536 9.41406L4.65903 9.5555H4.508L4.62985 9.64412L4.58351 9.78726L4.70536 9.69865L4.82722 9.78726L4.78088 9.64412L4.90273 9.5555H4.7517Z" fill="white"/>
<path id="Shape_20" d="M5.13273 6.88184L5.08639 7.02498H4.93536L5.05722 7.11359L5.01088 7.25503L5.13273 7.16642L5.2563 7.25503L5.20996 7.11359L5.33182 7.02498H5.18079L5.13273 6.88184Z" fill="white"/>
<path id="Shape_21" d="M5.13273 7.60547L5.08639 7.74861H4.93536L5.05722 7.83723L5.01088 7.97867L5.13273 7.89176L5.2563 7.97867L5.20996 7.83723L5.33182 7.74861H5.18079L5.13273 7.60547Z" fill="white"/>
<path id="Shape_22" d="M5.13273 8.33008L5.08639 8.47152H4.93536L5.05722 8.56013L5.01088 8.70328L5.13273 8.61466L5.2563 8.70328L5.20996 8.56013L5.33182 8.47152H5.18079L5.13273 8.33008Z" fill="white"/>
<path id="Shape_23" d="M5.18079 9.19417L5.13273 9.05273L5.08639 9.19417H4.93536L5.05722 9.28279L5.01088 9.42593L5.13273 9.33732L5.2563 9.42593L5.20996 9.28279L5.33182 9.19417H5.18079Z" fill="white"/>
<path id="Shape_24" d="M5.56175 6.51953L5.51541 6.66268H5.36438L5.48623 6.74958L5.43989 6.89273L5.56175 6.80412L5.6836 6.89273L5.63726 6.74958L5.75912 6.66268H5.60809L5.56175 6.51953Z" fill="white"/>
<path id="Shape_25" d="M5.56175 7.24414L5.51541 7.38728H5.36438L5.48623 7.4759L5.43989 7.61734L5.56175 7.53043L5.6836 7.61734L5.63726 7.4759L5.75912 7.38728H5.60809L5.56175 7.24414Z" fill="white"/>
<path id="Shape_26" d="M5.56175 7.96582L5.51541 8.10896H5.36438L5.48623 8.19758L5.43989 8.34072L5.56175 8.25211L5.6836 8.34072L5.63726 8.19758L5.75912 8.10896H5.60809L5.56175 7.96582Z" fill="white"/>
<path id="Shape_27" d="M5.56175 8.69238L5.51541 8.83382H5.36438L5.48623 8.92244L5.43989 9.06558L5.56175 8.97697L5.6836 9.06558L5.63726 8.92244L5.75912 8.83382H5.60809L5.56175 8.69238Z" fill="white"/>
<path id="Shape_28" d="M5.60809 9.5555L5.56175 9.41406L5.51541 9.5555H5.36438L5.48623 9.64412L5.43989 9.78726L5.56175 9.69865L5.6836 9.78726L5.63726 9.64412L5.75912 9.5555H5.60809Z" fill="white"/>
<path id="Shape_29" d="M5.98906 6.88184L5.94272 7.02498H5.79169L5.91354 7.11359L5.8672 7.25503L5.98906 7.16642L6.11263 7.25503L6.06629 7.11359L6.18814 7.02498H6.03711L5.98906 6.88184Z" fill="white"/>
<path id="Shape_30" d="M5.98906 7.60547L5.94272 7.74861H5.79169L5.91354 7.83723L5.8672 7.97867L5.98906 7.89176L6.11263 7.97867L6.06629 7.83723L6.18814 7.74861H6.03711L5.98906 7.60547Z" fill="white"/>
<path id="Shape_31" d="M5.98906 8.33008L5.94272 8.47152H5.79169L5.91354 8.56013L5.8672 8.70328L5.98906 8.61466L6.11263 8.70328L6.06629 8.56013L6.18814 8.47152H6.03711L5.98906 8.33008Z" fill="white"/>
<path id="Shape_32" d="M6.03711 9.19417L5.98906 9.05273L5.94272 9.19417H5.79169L5.91354 9.28279L5.8672 9.42593L5.98906 9.33732L6.11263 9.42593L6.06629 9.28279L6.18814 9.19417H6.03711Z" fill="white"/>
<path id="Shape_33" d="M6.41807 6.51953L6.37173 6.66268H6.2207L6.34256 6.74958L6.29622 6.89273L6.41807 6.80412L6.53993 6.89273L6.49359 6.74958L6.61544 6.66268H6.46441L6.41807 6.51953Z" fill="white"/>
<path id="Shape_34" d="M6.41807 7.24414L6.37173 7.38728H6.2207L6.34256 7.4759L6.29622 7.61734L6.41807 7.53043L6.53993 7.61734L6.49359 7.4759L6.61544 7.38728H6.46441L6.41807 7.24414Z" fill="white"/>
<path id="Shape_35" d="M6.41807 7.96582L6.37173 8.10896H6.2207L6.34256 8.19758L6.29622 8.34072L6.41807 8.25211L6.53993 8.34072L6.49359 8.19758L6.61544 8.10896H6.46441L6.41807 7.96582Z" fill="white"/>
<path id="Shape_36" d="M6.41807 8.69238L6.37173 8.83382H6.2207L6.34256 8.92244L6.29622 9.06558L6.41807 8.97697L6.53993 9.06558L6.49359 8.92244L6.61544 8.83382H6.46441L6.41807 8.69238Z" fill="white"/>
<path id="Shape_37" d="M6.46441 9.5555L6.41807 9.41406L6.37173 9.5555H6.2207L6.34256 9.64412L6.29622 9.78726L6.41807 9.69865L6.53993 9.78726L6.49359 9.64412L6.61544 9.5555H6.46441Z" fill="white"/>
<path id="Shape_38" d="M6.8455 6.88184L6.79916 7.02498H6.64813L6.76999 7.11359L6.72365 7.25503L6.8455 7.16642L6.96907 7.25503L6.92102 7.11359L7.04459 7.02498H6.89356L6.8455 6.88184Z" fill="white"/>
<path id="Shape_39" d="M6.8455 7.60547L6.79916 7.74861H6.64813L6.76999 7.83723L6.72365 7.97867L6.8455 7.89176L6.96907 7.97867L6.92102 7.83723L7.04459 7.74861H6.89356L6.8455 7.60547Z" fill="white"/>
<path id="Shape_40" d="M6.8455 8.33008L6.79916 8.47152H6.64813L6.76999 8.56013L6.72365 8.70328L6.8455 8.61466L6.96907 8.70328L6.92102 8.56013L7.04459 8.47152H6.89356L6.8455 8.33008Z" fill="white"/>
<path id="Shape_41" d="M6.89356 9.19417L6.8455 9.05273L6.79916 9.19417H6.64813L6.76999 9.28279L6.72365 9.42593L6.8455 9.33732L6.96907 9.42593L6.92102 9.28279L7.04459 9.19417H6.89356Z" fill="white"/>
<path id="Shape_42" d="M7.27464 6.51953L7.2283 6.66268H7.07727L7.19912 6.74958L7.15279 6.89273L7.27464 6.80412L7.39649 6.89273L7.35015 6.74958L7.47201 6.66268H7.32098L7.27464 6.51953Z" fill="white"/>
<path id="Shape_43" d="M7.27464 7.24414L7.2283 7.38728H7.07727L7.19912 7.4759L7.15279 7.61734L7.27464 7.53043L7.39649 7.61734L7.35015 7.4759L7.47201 7.38728H7.32098L7.27464 7.24414Z" fill="white"/>
<path id="Shape_44" d="M7.27464 7.96582L7.2283 8.10896H7.07727L7.19912 8.19758L7.15279 8.34072L7.27464 8.25211L7.39649 8.34072L7.35015 8.19758L7.47201 8.10896H7.32098L7.27464 7.96582Z" fill="white"/>
<path id="Shape_45" d="M7.27464 8.69238L7.2283 8.83382H7.07727L7.19912 8.92244L7.15279 9.06558L7.27464 8.97697L7.39649 9.06558L7.35015 8.92244L7.47201 8.83382H7.32098L7.27464 8.69238Z" fill="white"/>
<path id="Shape_46" d="M7.32098 9.5555L7.27464 9.41406L7.2283 9.5555H7.07727L7.19912 9.64412L7.15279 9.78726L7.27464 9.69865L7.39649 9.78726L7.35015 9.64412L7.47201 9.5555H7.32098Z" fill="white"/>
<path id="Shape_47" d="M7.70188 6.88184L7.65555 7.02498H7.50452L7.62637 7.11359L7.58003 7.25503L7.70188 7.16642L7.82545 7.25503L7.7774 7.11359L7.90097 7.02498H7.74994L7.70188 6.88184Z" fill="white"/>
<path id="Shape_48" d="M7.70188 7.60547L7.65555 7.74861H7.50452L7.62637 7.83723L7.58003 7.97867L7.70188 7.89176L7.82545 7.97867L7.7774 7.83723L7.90097 7.74861H7.74994L7.70188 7.60547Z" fill="white"/>
<path id="Shape_49" d="M7.70188 8.33008L7.65555 8.47152H7.50452L7.62637 8.56013L7.58003 8.70328L7.70188 8.61466L7.82545 8.70328L7.7774 8.56013L7.90097 8.47152H7.74994L7.70188 8.33008Z" fill="white"/>
<path id="Shape_50" d="M7.74994 9.19417L7.70188 9.05273L7.65555 9.19417H7.50452L7.62637 9.28279L7.58003 9.42593L7.70188 9.33732L7.82545 9.42593L7.7774 9.28279L7.90097 9.19417H7.74994Z" fill="white"/>
<path id="Shape_51" d="M8.1309 6.51953L8.08456 6.66268H7.93353L8.05539 6.74958L8.00905 6.89273L8.1309 6.80412L8.25275 6.89273L8.20642 6.74958L8.32827 6.66268H8.17724L8.1309 6.51953Z" fill="white"/>
<path id="Shape_52" d="M8.1309 7.24414L8.08456 7.38728H7.93353L8.05539 7.4759L8.00905 7.61734L8.1309 7.53043L8.25275 7.61734L8.20642 7.4759L8.32827 7.38728H8.17724L8.1309 7.24414Z" fill="white"/>
<path id="Shape_53" d="M8.1309 7.96582L8.08456 8.10896H7.93353L8.05539 8.19758L8.00905 8.34072L8.1309 8.25211L8.25275 8.34072L8.20642 8.19758L8.32827 8.10896H8.17724L8.1309 7.96582Z" fill="white"/>
<path id="Shape_54" d="M8.1309 8.69238L8.08456 8.83382H7.93353L8.05539 8.92244L8.00905 9.06558L8.1309 8.97697L8.25275 9.06558L8.20642 8.92244L8.32827 8.83382H8.17724L8.1309 8.69238Z" fill="white"/>
<path id="Shape_55" d="M8.17724 9.5555L8.1309 9.41406L8.08456 9.5555H7.93353L8.05539 9.64412L8.00905 9.78726L8.1309 9.69865L8.25275 9.78726L8.20642 9.64412L8.32827 9.5555H8.17724Z" fill="white"/>
<path id="Shape_56" d="M8.55845 6.88184L8.51211 7.02498H8.36108L8.48294 7.11359L8.4366 7.25503L8.55845 7.16642L8.68202 7.25503L8.63397 7.11359L8.75754 7.02498H8.60651L8.55845 6.88184Z" fill="white"/>
<path id="Shape_57" d="M8.55845 7.60547L8.51211 7.74861H8.36108L8.48294 7.83723L8.4366 7.97867L8.55845 7.89176L8.68202 7.97867L8.63397 7.83723L8.75754 7.74861H8.60651L8.55845 7.60547Z" fill="white"/>
<path id="Shape_58" d="M8.55845 8.33008L8.51211 8.47152H8.36108L8.48294 8.56013L8.4366 8.70328L8.55845 8.61466L8.68202 8.70328L8.63397 8.56013L8.75754 8.47152H8.60651L8.55845 8.33008Z" fill="white"/>
<path id="Shape_59" d="M8.60651 9.19417L8.55845 9.05273L8.51211 9.19417H8.36108L8.48294 9.28279L8.4366 9.42593L8.55845 9.33732L8.68202 9.42593L8.63397 9.28279L8.75754 9.19417H8.60651Z" fill="white"/>
<path id="Shape_60" d="M8.91183 6.74958L8.86549 6.89273L8.98735 6.80412L9.1092 6.89273L9.06286 6.74958L9.18472 6.66268H9.03369L8.98735 6.51953L8.94101 6.66268H8.78998L8.91183 6.74958Z" fill="white"/>
<path id="Shape_61" d="M8.98735 7.24414L8.94101 7.38728H8.78998L8.91183 7.4759L8.86549 7.61734L8.98735 7.53043L9.1092 7.61734L9.06286 7.4759L9.18472 7.38728H9.03369L8.98735 7.24414Z" fill="white"/>
<path id="Shape_62" d="M8.98735 7.96582L8.94101 8.10896H8.78998L8.91183 8.19758L8.86549 8.34072L8.98735 8.25211L9.1092 8.34072L9.06286 8.19758L9.18472 8.10896H9.03369L8.98735 7.96582Z" fill="white"/>
<path id="Shape_63" d="M8.98735 8.69238L8.94101 8.83382H8.78998L8.91183 8.92244L8.86549 9.06558L8.98735 8.97697L9.1092 9.06558L9.06286 8.92244L9.18472 8.83382H9.03369L8.98735 8.69238Z" fill="white"/>
<path id="Shape_64" d="M9.03369 9.5555L8.98735 9.41406L8.94101 9.5555H8.78998L8.91183 9.64412L8.86549 9.78726L8.98735 9.69865L9.1092 9.78726L9.06286 9.64412L9.18472 9.5555H9.03369Z" fill="white"/>
</g>
</g>
</svg>
