<svg width="18" height="18" viewBox="0 0 18 18" fill="none" xmlns="http://www.w3.org/2000/svg">
<g id="local_gas_station">
<path id="Vector" d="M14.64 5.42137L14.6475 5.41387L12.255 3.02137C12.0375 2.80387 11.6775 2.80387 11.46 3.02137C11.2425 3.23887 11.2425 3.59887 11.46 3.81637L12.645 5.00137C11.8575 5.30137 11.325 6.10387 11.46 7.03387C11.58 7.85887 12.285 8.52637 13.11 8.61637C13.4625 8.65387 13.77 8.59387 14.0625 8.46637V13.8739C14.0625 14.2864 13.725 14.6239 13.3125 14.6239C12.9 14.6239 12.5625 14.2864 12.5625 13.8739V10.4989C12.5625 9.67387 11.8875 8.99887 11.0625 8.99887H10.3125V3.74887C10.3125 2.92387 9.6375 2.24887 8.8125 2.24887H4.3125C3.4875 2.24887 2.8125 2.92387 2.8125 3.74887V14.9989C2.8125 15.4114 3.15 15.7489 3.5625 15.7489H9.5625C9.975 15.7489 10.3125 15.4114 10.3125 14.9989V10.1239H11.4375V13.7689C11.4375 14.7514 12.1425 15.6439 13.1175 15.7414C14.2425 15.8539 15.1875 14.9764 15.1875 13.8739V6.74887C15.1875 6.23137 14.9775 5.75887 14.64 5.42137ZM8.8125 7.49887H4.3125V4.49887C4.3125 4.08637 4.65 3.74887 5.0625 3.74887H8.0625C8.475 3.74887 8.8125 4.08637 8.8125 4.49887V7.49887ZM13.3125 7.49887C12.9 7.49887 12.5625 7.16137 12.5625 6.74887C12.5625 6.33637 12.9 5.99887 13.3125 5.99887C13.725 5.99887 14.0625 6.33637 14.0625 6.74887C14.0625 7.16137 13.725 7.49887 13.3125 7.49887Z" fill="#3D708A"/>
</g>
</svg>
