<svg width="44" height="32" viewBox="0 0 44 32" fill="none" xmlns="http://www.w3.org/2000/svg">
<path id="Vector" fill-rule="evenodd" clip-rule="evenodd" d="M10.3296 0L7.0574 3.42598C8.12573 4.49232 9.18313 5.43031 10.2276 6.25019V11.5669C7.83914 10.2931 5.58032 8.77661 3.45376 7.19895L0 10.815C3.55775 13.5052 6.97227 15.4751 10.2276 16.8554V25.7781L14.9313 27.0528V18.4846C19.689 19.7607 24.0517 19.7953 27.9612 19.0633V30.7254L32.6649 32V17.7625C37.3286 16.0459 41.1519 13.3337 44 10.7333L40.8804 7.46721C38.0524 9.89058 35.3132 11.6509 32.6649 12.864V8.01314C34.5221 6.83393 36.1663 5.42564 37.5591 3.98966L34.4639 0.749205C24.0628 11.3919 15.1343 4.57147 10.3296 0ZM14.9313 9.22467V13.6524C18.9593 15.0612 23.3061 15.5782 27.9612 14.4896V10.2547C24.1228 11.4969 19.7084 11.5274 14.9313 9.22467Z" fill="#4C7064"/>
</svg>
